<svg width="64" height="85" viewBox="0 0 64 85" fill="none" xmlns="http://www.w3.org/2000/svg">
    <path d="M54.4149 6.63946C47.4577 7.75243 42.668 7.15909 37.5971 9.57429H33.1346C33.1913 9.62907 33.2494 9.6812 33.3056 9.73698C34.9051 11.3362 36.3055 13.4425 37.5182 15.9534L37.7699 15.8528C43.3713 18.4214 45.8952 22.9088 48.0541 27.5033C44.9557 24.5854 42.1153 21.1162 38.7426 18.7842C40.7703 24.0236 42.1167 30.5895 42.5302 37.8411L42.5584 37.747L45.3566 50.4563L42.6257 45.2213C42.3584 53.889 40.7701 61.6989 38.2689 67.611C36.8938 70.8611 35.2458 73.5461 33.3056 75.4858C33.2494 75.5419 33.1913 75.5937 33.1346 75.6485H49.5314C45.7172 76.7982 41.0734 77.2967 37.1948 78.3234C43.566 78.4508 51.3257 78.4007 57.0033 75.6488H58.4375C59.9775 75.6488 61.5124 74.9273 63.0677 73.3724C64.6232 71.8175 66.1232 69.4457 67.3921 66.4468C69.7378 60.9023 71.3011 53.2424 71.5242 44.7186C72.5892 46.0126 73.4589 47.5484 74.2757 49.2645C73.7322 56.0084 72.3715 62.0859 70.41 66.9587V73.9165L68.7029 70.6161C67.657 72.5394 66.4849 74.1818 65.1806 75.4858C65.1244 75.5419 65.0663 75.5937 65.0096 75.6485H69.0625C70.6025 75.6485 72.1374 74.9273 73.6927 73.3724C74.8133 72.2522 75.9048 70.7057 76.9023 68.8083L77.5004 73.1745L80.1693 59.8946C80.4472 58.7906 80.6984 57.6406 80.9235 56.4551L77.3043 60.4838L81.559 52.448C81.9586 49.3398 82.1777 46.0361 82.1777 42.6112C82.1777 35.0476 81.1186 28.0666 79.3737 22.5004C80.1806 23.5287 80.9708 24.6545 81.7876 25.8496C80.7709 21.2696 78.4482 17.519 75.7064 14.3746C75.0562 13.3848 74.38 12.5375 73.6927 11.8505C72.1374 10.2956 70.6025 9.57445 69.0625 9.57445H65.0097C65.0662 9.62924 65.1243 9.68104 65.1807 9.73715C67.1209 11.6769 68.7688 14.3617 70.1439 17.6118C72.8941 24.1121 74.541 32.9051 74.541 42.6112C74.541 43.615 74.5224 44.6081 74.4879 45.5905C73.7441 43.2451 72.683 41.0721 71.4739 39.0608C71.1216 31.1173 69.6045 24.0059 67.3921 18.7762C66.1232 15.7771 64.6229 13.4053 63.0678 11.8504C61.5126 10.2955 59.9776 9.57429 58.4377 9.57429H45.1992C48.0323 8.63414 51.8869 8.00826 54.4153 6.63913L54.4149 6.63946ZM15.9375 9.57412C14.3975 9.57412 12.8626 10.2956 11.3073 11.8505C9.75176 13.4054 8.25181 15.7773 6.98312 18.7762C6.31905 20.3459 5.71808 22.0869 5.19181 23.9675C4.55132 21.2173 4.65923 18.6308 4.53438 15.2962C2.97052 21.8359 3.15147 27.2662 3.33492 33.6318C3.00256 36.4882 2.82227 39.5001 2.82227 42.6112C2.82227 51.9762 4.44557 60.4489 6.98312 66.4466C7.23291 67.0374 7.50032 67.6207 7.78497 68.1956C6.333 66.4003 5.17388 64.396 3.75129 62.5799C5.86068 65.8599 7.25372 69.7262 10.3006 72.2394C10.6323 72.6537 10.9683 73.0334 11.3072 73.3723C12.8624 74.9272 14.3974 75.6483 15.9373 75.6483C17.4773 75.6483 19.0123 74.9272 20.5675 73.3723C22.1231 71.8174 23.623 69.4455 24.8917 66.4466C25.2724 65.5468 25.6321 64.5905 25.9692 63.5848C23.9737 65.1226 21.451 67.013 21.1042 67.013C20.6437 67.013 25.1467 61.85 27.1128 59.6187C27.9313 56.2959 28.523 52.5909 28.8245 48.6401C28.6893 48.4947 28.5509 48.3524 28.4094 48.2131L28.8535 48.2342C28.9863 46.3628 29.0528 44.4873 29.0527 42.6112C29.0527 41.8547 29.0411 41.1045 29.0204 40.3601C29.6434 42.1344 30.2783 44.0868 30.9518 46.412C30.3669 41.4269 29.6077 35.6899 28.3301 31.9915C27.6205 26.9173 26.423 22.3958 24.8919 18.7762C23.623 15.7771 22.1227 13.4053 20.5677 11.8504C19.0124 10.2955 17.4775 9.57429 15.9375 9.57429V9.57412ZM22.5097 9.57412C22.5662 9.62891 22.6243 9.68104 22.6807 9.73682C24.6209 11.6769 26.2688 14.3617 27.6439 17.6118C30.3941 24.1121 32.041 32.9051 32.041 42.6112C32.041 44.8099 31.9557 46.9608 31.793 49.0497C35.2919 53.5165 35.6944 58.3864 35.7553 63.2075C34.2938 59.6391 33.2116 55.7467 31.4555 52.4297C30.7486 58.2046 29.4291 63.3914 27.6438 67.611C26.2688 70.8611 24.6209 73.5461 22.6806 75.4858C22.6244 75.5419 22.5663 75.5937 22.5096 75.6485H26.5625C28.1025 75.6485 29.6374 74.9273 31.1927 73.3724C32.7482 71.8175 34.2482 69.4457 35.5171 66.4468C38.0541 60.4489 39.6777 51.9762 39.6777 42.6112C39.6777 38.1587 39.3102 33.9089 38.6524 30.0299C39.3708 30.9674 40.0795 31.9789 40.8096 33.0471C40.197 30.2869 39.1096 27.8284 37.7427 25.6212C37.1224 23.0994 36.3719 20.7968 35.5171 18.7764C34.2482 15.7773 32.7479 13.4054 31.1928 11.8505C29.6376 10.2956 28.1026 9.57445 26.5627 9.57445H22.5099L22.5097 9.57412ZM57.2498 11.9789C61.4412 14.7696 62.9379 18.8298 64.129 22.9392C61.2722 19.2005 58.8989 14.6882 55.0342 12.5619L57.2498 11.9789ZM19.297 14.2524L18.0104 18.6485C18.4558 18.9294 18.8956 19.348 19.3224 19.9103C23.3303 25.1912 24.936 40.2847 23.2536 52.4352C21.2966 66.5698 15.8659 72.1977 11.507 66.054C9.55935 63.3087 7.98983 58.5311 7.00237 52.7163C8.04047 54.9814 9.48696 57.1838 10.3622 57.5545C10.9134 59.0353 11.5296 60.2784 12.1967 61.2184C15.7262 66.1936 20.145 61.6129 21.7087 50.3195C23.0297 40.7786 21.7632 28.8723 18.6714 24.7989C16.1347 21.457 12.9804 24.8421 11.9535 32.9895C11.1455 39.3993 12.0302 47.3415 14.1158 49.7298C15.6531 51.4901 17.5535 49.3198 18.0471 44.3697C18.2088 42.7499 18.1633 40.806 17.9391 39.2896C17.7145 37.773 17.3588 36.7253 16.8361 36.3566C16.5868 36.1806 16.2142 36.3446 15.9765 36.7633C15.7391 37.1825 15.6473 37.5506 15.6423 38.2847L13.9578 38.1705C13.9765 35.4462 14.5222 33.2523 15.1522 32.1408C15.7826 31.0295 16.5086 30.6945 17.2052 31.1857C18.271 31.9378 19.0586 34.298 19.4663 37.0534C19.8226 39.4611 19.9252 42.202 19.7486 44.8274L19.7114 44.84C19.7197 44.9213 19.7246 45.002 19.7296 45.0824C19.7082 45.3739 19.6833 45.6652 19.6549 45.9561C19.6197 46.3064 19.5794 46.6446 19.5367 46.9771C18.8966 49.3437 16.8589 51.2507 14.8421 52.9736C15.9104 53.2555 17.4735 52.0721 18.8717 50.4867C17.6186 55.2243 15.4072 56.8496 13.5392 54.7101C10.4917 51.2205 9.2484 40.0675 10.3866 31.0363C11.2881 23.8843 13.3433 19.4866 15.5929 18.4548L19.2963 14.2529L19.297 14.2524ZM7.78912 44.6018C8.08828 48.2519 8.64941 51.6496 9.40877 54.5169C7.72969 52.6904 6.95107 50.4389 6.3833 48.2458C6.29946 47.4821 6.22193 46.7105 6.15752 45.9246L7.78912 44.6014V44.6018ZM58.6201 47.6156H60.7637C59.1743 51.5381 55.6189 55.1899 51.6121 57.9219C54.195 54.5481 57.6368 51.3891 58.6201 47.6156ZM62.1858 65.6532L62.7342 67.8773C59.8787 72.0249 55.7957 73.4581 51.6684 74.5852C55.451 71.7868 60 69.4842 62.186 65.653L62.1858 65.6532Z" fill="#F88A08"/>
</svg>
